<svg width="40" height="40" viewBox="0 0 40 40" fill="none" xmlns="http://www.w3.org/2000/svg">
<path fill-rule="evenodd" clip-rule="evenodd" d="M30.1612 9.22952C30.4387 7.56715 30.846 6.52181 31.2971 6.5198H31.2981C32.1394 6.5228 32.8213 10.1481 32.8213 14.624C32.8213 19.0999 32.1384 22.7282 31.2962 22.7282C30.9509 22.7282 30.6323 22.1121 30.3758 21.0798C29.9704 24.8588 29.1292 27.4567 28.1553 27.4567C27.4018 27.4567 26.7256 25.8962 26.2716 23.4351C25.9616 28.1157 25.1814 31.4364 24.2695 31.4364C23.6972 31.4364 23.1755 30.1205 22.7892 27.9779C22.3247 32.4009 21.2517 35.5 20.0003 35.5C18.7489 35.5 17.674 32.4019 17.2114 27.9779C16.828 30.1205 16.3063 31.4364 15.7311 31.4364C14.8193 31.4364 14.0409 28.1157 13.7291 23.4351C13.2751 25.8962 12.6007 27.4567 11.8453 27.4567C10.8724 27.4567 10.0302 24.8598 9.62486 21.0798C9.3702 22.1152 9.04972 22.7282 8.70445 22.7282C7.86224 22.7282 7.17932 19.0999 7.17932 14.624C7.17932 10.1481 7.86224 6.5198 8.70445 6.5198C9.15655 6.5198 9.56096 7.56815 9.84138 9.22952C10.2906 6.36305 11.0203 4.5 11.8453 4.5C12.8249 4.5 13.6737 7.13484 14.0753 10.9608C14.4683 8.17619 15.0644 6.401 15.7321 6.401C16.6677 6.401 17.4632 9.89248 17.758 14.7628C18.3121 12.2657 19.1142 10.6992 20.0022 10.6992C20.8902 10.6992 21.6924 12.2667 22.2455 14.7628C22.5412 9.89248 23.3357 6.401 24.2714 6.401C24.9381 6.401 25.5333 8.17619 25.9282 10.9608C26.3288 7.13484 27.1776 4.5 28.1572 4.5C28.9794 4.5 29.7119 6.36406 30.1612 9.22952ZM5 13.8269C5 11.8261 5.38725 10.2036 5.8651 10.2036C6.34295 10.2036 6.7302 11.8261 6.7302 13.8269C6.7302 15.8277 6.34295 17.4502 5.8651 17.4502C5.38725 17.4502 5 15.8277 5 13.8269ZM33.2698 13.8269C33.2698 11.8261 33.657 10.2036 34.1349 10.2036C34.6127 10.2036 35 11.8261 35 13.8269C35 15.8277 34.6127 17.4502 34.1349 17.4502C33.657 17.4502 33.2698 15.8277 33.2698 13.8269Z" fill="#A238FF"/>
</svg>
